{
	"asset": {
		"generator": "SOLIDWORKSGLTF",
		"version" : "2.0"
	},
"extensionsUsed": [ "KHR_lights_punctual", "Solidworks_custom_properties"],
	"scene" : 0,
	"scenes": [
		{
			"name": "Default - Display State-1",
			"nodes": [
				0, 1]
		}
	],
	"nodes": [
		{
			"matrix": [
				0.550419,					-0.0217295,					-0.834606,					0,
				-0.157804,					0.978934,					-0.129558,					0,
				0.81984,					0.203015,					0.535395,					0,
				52.3202,					15.336,					34.9987,					1
			]
			,"camera": 0
			,"name": "current"		}
,
		{
			"children": [
				2, 7
			]
			,"name": "Kayak2"		}
,
		{
			"children": [
				3, 4, 5, 6
			]
			,"name": "Сборка1-1"		}
,
		{
			"matrix": [
				1,					0,					0,					0,
				0,					1,					0,					0,
				0,					0,					1,					0,
				2.93364,					2.98721,					4.21394,					1
			]
			,"mesh": 0
			,"name": "___2-1"		}
,
		{
			"matrix": [
				1,					0,					0,					0,
				0,					1,					0,					0,
				0,					0,					1,					0,
				2.93364,					2.98721,					1.76394,					1
			]
			,"mesh": 1
			,"name": "___3-1"		}
,
		{
			"matrix": [
				1,					0,					0,					0,
				0,					1,					0,					0,
				0,					0,					1,					0,
				2.93364,					2.96321,					5.36394,					1
			]
			,"mesh": 2
			,"name": "___1-1"		}
,
		{
			"matrix": [
				1,					0,					0,					0,
				0,					1,					0,					0,
				0,					0,					1,					0,
				3.03364,					2.98721,					3.61394,					1
			]
			,"mesh": 3
			,"name": "___4-1"		}
,
		{
			"matrix": [
				-1,					-6.40113e-15,					0,					0,
				-1.12117e-28,					1.74574e-14,					-1,					0,
				6.40113e-15,					-1,					-1.74574e-14,					0,
				2.93113,					3.09809,					2.86132,					1
			]
			,"mesh": 4
			,"name": "T_Bar-1"		}
	],
	"cameras": [
		{
			"type": "orthographic",
			"orthographic" : {
				"xmag": 1,
				"ymag" : 1,
				"zfar" : 100,
				"znear" : 0.01
			}
		}
	],
	"meshes" : [
		{
			"primitives" : [
				{
					"attributes" : {
					"POSITION" : 1,
					"NORMAL" : 2,
					"TEXCOORD_0" : 3
					},
					"indices" : 0,
					"mode": 4,
					"material" : 1
				}
			]
		},
		{
			"primitives" : [
				{
					"attributes" : {
					"POSITION" : 5,
					"NORMAL" : 6,
					"TEXCOORD_0" : 7
					},
					"indices" : 4,
					"mode": 4,
					"material" : 2
				}
			]
		},
		{
			"primitives" : [
				{
					"attributes" : {
					"POSITION" : 9,
					"NORMAL" : 10,
					"TEXCOORD_0" : 11
					},
					"indices" : 8,
					"mode": 4,
					"material" : 3
				},
				{
					"attributes" : {
					"POSITION" : 13,
					"NORMAL" : 14,
					"TEXCOORD_0" : 15
					},
					"indices" : 12,
					"mode": 4,
					"material" : 4
				},
				{
					"attributes" : {
					"POSITION" : 17,
					"NORMAL" : 18,
					"TEXCOORD_0" : 19
					},
					"indices" : 16,
					"mode": 4,
					"material" : 5
				},
				{
					"attributes" : {
					"POSITION" : 21,
					"NORMAL" : 22,
					"TEXCOORD_0" : 23
					},
					"indices" : 20,
					"mode": 4,
					"material" : 5
				},
				{
					"attributes" : {
					"POSITION" : 25,
					"NORMAL" : 26,
					"TEXCOORD_0" : 27
					},
					"indices" : 24,
					"mode": 4,
					"material" : 5
				},
				{
					"attributes" : {
					"POSITION" : 29,
					"NORMAL" : 30,
					"TEXCOORD_0" : 31
					},
					"indices" : 28,
					"mode": 4,
					"material" : 5
				}
			]
		},
		{
			"primitives" : [
				{
					"attributes" : {
					"POSITION" : 33,
					"NORMAL" : 34,
					"TEXCOORD_0" : 35
					},
					"indices" : 32,
					"mode": 4,
					"material" : 6
				}
			]
		},
		{
			"primitives" : [
				{
					"attributes" : {
					"POSITION" : 37,
					"NORMAL" : 38,
					"TEXCOORD_0" : 39
					},
					"indices" : 36,
					"mode": 4,
					"material" : 0
				}
			]
		}
	],
	"accessors" : [
			{
				"bufferView": 3
				,"byteOffset" : 0
				,"componentType" : 5123
				,"count" : 51870
				,"type" : "SCALAR"
			},
			{
				"bufferView": 0
				,"byteOffset" : 0
				,"componentType" : 5126
				,"count" : 51870
				,"type" : "VEC3"
				,"min" : [-1.69978589e-01, 2.90345959e-03, -2.40476251e-01]
				,"max" : [1.69978589e-01, 1.09999999e-02, 2.40476251e-01]
			},
			{
				"bufferView": 1
				,"byteOffset" : 0
				,"componentType" : 5126
				,"count" : 51870
				,"type" : "VEC3"
			},
			{
				"bufferView": 2
				,"byteOffset" : 0
				,"componentType" : 5126
				,"count" : 51870
				,"type" : "VEC2"
			},
			{
				"bufferView": 7
				,"byteOffset" : 0
				,"componentType" : 5123
				,"count" : 49086
				,"type" : "SCALAR"
			},
			{
				"bufferView": 4
				,"byteOffset" : 0
				,"componentType" : 5126
				,"count" : 49086
				,"type" : "VEC3"
				,"min" : [-1.30978584e-01, 2.90345959e-03, -1.48476258e-01]
				,"max" : [1.30978584e-01, 1.09999999e-02, 1.48476258e-01]
			},
			{
				"bufferView": 5
				,"byteOffset" : 0
				,"componentType" : 5126
				,"count" : 49086
				,"type" : "VEC3"
			},
			{
				"bufferView": 6
				,"byteOffset" : 0
				,"componentType" : 5126
				,"count" : 49086
				,"type" : "VEC2"
			},
			{
				"bufferView": 11
				,"byteOffset" : 0
				,"componentType" : 5123
				,"count" : 15615
				,"type" : "SCALAR"
			},
			{
				"bufferView": 8
				,"byteOffset" : 0
				,"componentType" : 5126
				,"count" : 15615
				,"type" : "VEC3"
				,"min" : [-1.49100691e-01, -6.92611113e-02, -2.12435007e+00]
				,"max" : [1.49100944e-01, 1.48000002e-01, 1.17549435e-38]
			},
			{
				"bufferView": 9
				,"byteOffset" : 0
				,"componentType" : 5126
				,"count" : 15615
				,"type" : "VEC3"
			},
			{
				"bufferView": 10
				,"byteOffset" : 0
				,"componentType" : 5126
				,"count" : 15615
				,"type" : "VEC2"
			},
			{
				"bufferView": 11
				,"byteOffset" : 31230
				,"componentType" : 5123
				,"count" : 9843
				,"type" : "SCALAR"
			},
			{
				"bufferView": 8
				,"byteOffset" : 187380
				,"componentType" : 5126
				,"count" : 9843
				,"type" : "VEC3"
				,"min" : [-1.25297964e-01, -4.34247255e-02, -2.07441568e+00]
				,"max" : [1.25308990e-01, 1.27185032e-01, 1.17549435e-38]
			},
			{
				"bufferView": 9
				,"byteOffset" : 187380
				,"componentType" : 5126
				,"count" : 9843
				,"type" : "VEC3"
			},
			{
				"bufferView": 10
				,"byteOffset" : 124920
				,"componentType" : 5126
				,"count" : 9843
				,"type" : "VEC2"
			},
			{
				"bufferView": 11
				,"byteOffset" : 50916
				,"componentType" : 5123
				,"count" : 64998
				,"type" : "SCALAR"
			},
			{
				"bufferView": 8
				,"byteOffset" : 305496
				,"componentType" : 5126
				,"count" : 64998
				,"type" : "VEC3"
				,"min" : [-2.74621904e-01, -2.52362698e-01, -3.74044943e+00]
				,"max" : [2.74622053e-01, 8.38604420e-02, 1.17549435e-38]
			},
			{
				"bufferView": 9
				,"byteOffset" : 305496
				,"componentType" : 5126
				,"count" : 64998
				,"type" : "VEC3"
			},
			{
				"bufferView": 10
				,"byteOffset" : 203664
				,"componentType" : 5126
				,"count" : 64998
				,"type" : "VEC2"
			},
			{
				"bufferView": 11
				,"byteOffset" : 180912
				,"componentType" : 5123
				,"count" : 64998
				,"type" : "SCALAR"
			},
			{
				"bufferView": 8
				,"byteOffset" : 1085472
				,"componentType" : 5126
				,"count" : 64998
				,"type" : "VEC3"
				,"min" : [-2.82004535e-01, -2.40234032e-01, -3.78845739e+00]
				,"max" : [2.81945080e-01, 1.09157287e-01, 1.52910342e-02]
			},
			{
				"bufferView": 9
				,"byteOffset" : 1085472
				,"componentType" : 5126
				,"count" : 64998
				,"type" : "VEC3"
			},
			{
				"bufferView": 10
				,"byteOffset" : 723648
				,"componentType" : 5126
				,"count" : 64998
				,"type" : "VEC2"
			},
			{
				"bufferView": 11
				,"byteOffset" : 310908
				,"componentType" : 5123
				,"count" : 64998
				,"type" : "SCALAR"
			},
			{
				"bufferView": 8
				,"byteOffset" : 1865448
				,"componentType" : 5126
				,"count" : 64998
				,"type" : "VEC3"
				,"min" : [-2.95004934e-01, -2.66509682e-01, -5.00000000e+00]
				,"max" : [2.95267791e-01, 1.09157287e-01, 3.25003266e-02]
			},
			{
				"bufferView": 9
				,"byteOffset" : 1865448
				,"componentType" : 5126
				,"count" : 64998
				,"type" : "VEC3"
			},
			{
				"bufferView": 10
				,"byteOffset" : 1243632
				,"componentType" : 5126
				,"count" : 64998
				,"type" : "VEC2"
			},
			{
				"bufferView": 11
				,"byteOffset" : 440904
				,"componentType" : 5123
				,"count" : 55809
				,"type" : "SCALAR"
			},
			{
				"bufferView": 8
				,"byteOffset" : 2645424
				,"componentType" : 5126
				,"count" : 55809
				,"type" : "VEC3"
				,"min" : [-2.88114518e-01, -2.52091646e-01, -4.93767977e+00]
				,"max" : [2.58652240e-01, 1.00226626e-01, 1.17549435e-38]
			},
			{
				"bufferView": 9
				,"byteOffset" : 2645424
				,"componentType" : 5126
				,"count" : 55809
				,"type" : "VEC3"
			},
			{
				"bufferView": 10
				,"byteOffset" : 1763616
				,"componentType" : 5126
				,"count" : 55809
				,"type" : "VEC2"
			},
			{
				"bufferView": 15
				,"byteOffset" : 0
				,"componentType" : 5123
				,"count" : 33696
				,"type" : "SCALAR"
			},
			{
				"bufferView": 12
				,"byteOffset" : 0
				,"componentType" : 5126
				,"count" : 33696
				,"type" : "VEC3"
				,"min" : [-1.18477330e-01, 2.90471991e-03, -1.18477330e-01]
				,"max" : [1.18477330e-01, 1.09999999e-02, 1.18477330e-01]
			},
			{
				"bufferView": 13
				,"byteOffset" : 0
				,"componentType" : 5126
				,"count" : 33696
				,"type" : "VEC3"
			},
			{
				"bufferView": 14
				,"byteOffset" : 0
				,"componentType" : 5126
				,"count" : 33696
				,"type" : "VEC2"
			},
			{
				"bufferView": 19
				,"byteOffset" : 0
				,"componentType" : 5123
				,"count" : 3570
				,"type" : "SCALAR"
			},
			{
				"bufferView": 16
				,"byteOffset" : 0
				,"componentType" : 5126
				,"count" : 3570
				,"type" : "VEC3"
				,"min" : [-2.50000000e-01, -9.99999978e-03, -9.99999978e-03]
				,"max" : [2.50000000e-01, 1.11809003e+00, 1.09999999e-01]
			},
			{
				"bufferView": 17
				,"byteOffset" : 0
				,"componentType" : 5126
				,"count" : 3570
				,"type" : "VEC3"
			},
			{
				"bufferView": 18
				,"byteOffset" : 0
				,"componentType" : 5126
				,"count" : 3570
				,"type" : "VEC2"
			}
	],
	"materials": [
			{
				"pbrMetallicRoughness": {
					"baseColorFactor": [
						0.498039, 0.498039, 0.498039, 1
					]
					,"metallicFactor": 0
					,"roughnessFactor": 1
				}
			},
			{
				"name": "color-4"
				,"pbrMetallicRoughness": {
					"baseColorFactor": [
						0.109804, 0.109804, 0.109804, 1
					]
					,"metallicFactor": 0
					,"roughnessFactor": 0.18
				}
			},
			{
				"name": "color-3"
				,"pbrMetallicRoughness": {
					"baseColorFactor": [
						0.109804, 0.109804, 0.109804, 1
					]
					,"metallicFactor": 0
					,"roughnessFactor": 0.18
				}
			},
			{
				"name": "color"
				,"pbrMetallicRoughness": {
					"baseColorFactor": [
						0.109804, 0.109804, 0.109804, 1
					]
					,"metallicFactor": 0
					,"roughnessFactor": 0.16
				}
			},
			{
				"name": "color-1"
				,"pbrMetallicRoughness": {
					"baseColorFactor": [
						0.647059, 0.619608, 0.6, 1
					]
					,"metallicFactor": 0
					,"roughnessFactor": 0.16
				}
			},
			{
				"name": "color-2"
				,"pbrMetallicRoughness": {
					"baseColorFactor": [
						0.647059, 0.619608, 0.588235, 1
					]
					,"metallicFactor": 0
					,"roughnessFactor": 0.16
				}
			},
			{
				"name": "color-5"
				,"pbrMetallicRoughness": {
					"baseColorFactor": [
						0.109804, 0.109804, 0.109804, 1
					]
					,"metallicFactor": 0
					,"roughnessFactor": 0.18
				}
			}
	],
	"bufferViews" : [
			{
				"buffer": 0
				,"byteOffset" : 0
				,"byteLength" : 622440
				,"byteStride" : 12
				,"target" : 34962
			},
			{
				"buffer": 0
				,"byteOffset" : 622440
				,"byteLength" : 622440
				,"byteStride" : 12
				,"target" : 34962
			},
			{
				"buffer": 0
				,"byteOffset" : 1244880
				,"byteLength" : 414960
				,"byteStride" : 8
				,"target" : 34962
			},
			{
				"buffer": 0
				,"byteOffset" : 1659840
				,"byteLength" : 103740
				,"target" : 34963
			},
			{
				"buffer": 1
				,"byteOffset" : 0
				,"byteLength" : 589032
				,"byteStride" : 12
				,"target" : 34962
			},
			{
				"buffer": 1
				,"byteOffset" : 589032
				,"byteLength" : 589032
				,"byteStride" : 12
				,"target" : 34962
			},
			{
				"buffer": 1
				,"byteOffset" : 1178064
				,"byteLength" : 392688
				,"byteStride" : 8
				,"target" : 34962
			},
			{
				"buffer": 1
				,"byteOffset" : 1570752
				,"byteLength" : 98172
				,"target" : 34963
			},
			{
				"buffer": 2
				,"byteOffset" : 0
				,"byteLength" : 3315132
				,"byteStride" : 12
				,"target" : 34962
			},
			{
				"buffer": 2
				,"byteOffset" : 3315132
				,"byteLength" : 3315132
				,"byteStride" : 12
				,"target" : 34962
			},
			{
				"buffer": 2
				,"byteOffset" : 6630264
				,"byteLength" : 2210088
				,"byteStride" : 8
				,"target" : 34962
			},
			{
				"buffer": 2
				,"byteOffset" : 8840352
				,"byteLength" : 552522
				,"target" : 34963
			},
			{
				"buffer": 3
				,"byteOffset" : 0
				,"byteLength" : 404352
				,"byteStride" : 12
				,"target" : 34962
			},
			{
				"buffer": 3
				,"byteOffset" : 404352
				,"byteLength" : 404352
				,"byteStride" : 12
				,"target" : 34962
			},
			{
				"buffer": 3
				,"byteOffset" : 808704
				,"byteLength" : 269568
				,"byteStride" : 8
				,"target" : 34962
			},
			{
				"buffer": 3
				,"byteOffset" : 1078272
				,"byteLength" : 67392
				,"target" : 34963
			},
			{
				"buffer": 4
				,"byteOffset" : 0
				,"byteLength" : 42840
				,"byteStride" : 12
				,"target" : 34962
			},
			{
				"buffer": 4
				,"byteOffset" : 42840
				,"byteLength" : 42840
				,"byteStride" : 12
				,"target" : 34962
			},
			{
				"buffer": 4
				,"byteOffset" : 85680
				,"byteLength" : 28560
				,"byteStride" : 8
				,"target" : 34962
			},
			{
				"buffer": 4
				,"byteOffset" : 114240
				,"byteLength" : 7140
				,"target" : 34963
			}
	],
	"buffers" : [
			{
				"byteLength": 1763580
				,"uri" : "___2-1.bin"
			},
			{
				"byteLength": 1668924
				,"uri" : "___3-1.bin"
			},
			{
				"byteLength": 9392876
				,"uri" : "___1-1.bin"
			},
			{
				"byteLength": 1145664
				,"uri" : "___4-1.bin"
			},
			{
				"byteLength": 121380
				,"uri" : "T_Bar-1.bin"
			}
	]
}
