{
	"asset": {
		"generator": "SOLIDWORKSGLTF",
		"version" : "2.0"
	},
"extensionsUsed": [ "KHR_lights_punctual", "Solidworks_custom_properties"],
	"scene" : 0,
	"scenes": [
		{
			"name": "Default - <Default>_Display State 1",
			"nodes": [
				0, 1]
		}
	],
	"nodes": [
		{
			"matrix": [
				0.897425,					0.440998,					0.0122185,					0,
				0.119102,					-0.215517,					-0.969209,					0,
				-0.424786,					0.871248,					-0.245934,					0,
				-0.903582,					1.8217,					-0.590569,					1
			]
			,"camera": 0
			,"name": "current"		}
,
		{
			"mesh": 0
			,"name": "Rocker"		}
	],
	"cameras": [
		{
			"type": "orthographic",
			"orthographic" : {
				"xmag": 1,
				"ymag" : 1,
				"zfar" : 100,
				"znear" : 0.01
			}
		}
	],
	"meshes" : [
		{
			"primitives" : [
				{
					"attributes" : {
					"POSITION" : 1,
					"NORMAL" : 2,
					"TEXCOORD_0" : 3
					},
					"indices" : 0,
					"mode": 4,
					"material" : 0
				}
			]
		}
	],
	"accessors" : [
			{
				"bufferView": 3
				,"byteOffset" : 0
				,"componentType" : 5123
				,"count" : 7836
				,"type" : "SCALAR"
			},
			{
				"bufferView": 0
				,"byteOffset" : 0
				,"componentType" : 5126
				,"count" : 7836
				,"type" : "VEC3"
				,"min" : [2.23149848e-03, -8.67361738e-19, -2.09999993e-01]
				,"max" : [3.91493067e-02, 1.49999997e-02, 2.94902991e-17]
			},
			{
				"bufferView": 1
				,"byteOffset" : 0
				,"componentType" : 5126
				,"count" : 7836
				,"type" : "VEC3"
			},
			{
				"bufferView": 2
				,"byteOffset" : 0
				,"componentType" : 5126
				,"count" : 7836
				,"type" : "VEC2"
			}
	],
	"materials": [
			{
				"pbrMetallicRoughness": {
					"baseColorFactor": [
						0.498039, 0.498039, 0.498039, 1
					]
					,"metallicFactor": 0
					,"roughnessFactor": 1
				}
			}
	],
	"bufferViews" : [
			{
				"buffer": 0
				,"byteOffset" : 0
				,"byteLength" : 94032
				,"byteStride" : 12
				,"target" : 34962
			},
			{
				"buffer": 0
				,"byteOffset" : 94032
				,"byteLength" : 94032
				,"byteStride" : 12
				,"target" : 34962
			},
			{
				"buffer": 0
				,"byteOffset" : 188064
				,"byteLength" : 62688
				,"byteStride" : 8
				,"target" : 34962
			},
			{
				"buffer": 0
				,"byteOffset" : 250752
				,"byteLength" : 15672
				,"target" : 34963
			}
	],
	"buffers" : [
			{
				"byteLength": 266424
				,"uri" : "Rocker.bin"
			}
	]
}
