{
	"asset": {
		"generator": "SOLIDWORKSGLTF",
		"version" : "2.0"
	},
"extensionsUsed": [ "KHR_lights_punctual", "Solidworks_custom_properties"],
	"scene" : 0,
	"scenes": [
		{
			"name": "Default - <Default>_Display State 1",
			"nodes": [
				0, 1]
		}
		,
		{
			"name": "Default - Display State-1",
			"nodes": [
				0, 15]
		}
	],
	"nodes": [
		{
			"matrix": [
				0.80018,					0.594206,					-0.0814304,					0,
				-0.0468496,					0.197283,					0.979226,					0,
				0.597927,					-0.779742,					0.1857,					0,
				26.7533,					-34.0554,					9.91773,					1
			]
			,"camera": 0
			,"name": "current"		}
,
		{
			"children": [
				2, 3
			]
			,"name": "Kayak_Assembly"		}
,
		{
			"matrix": [
				1,					0,					0,					0,
				0,					1,					0,					0,
				0,					0,					1,					0,
				-0.0895128,					0.841393,					1.28914,					1
			]
			,"mesh": 0
			,"name": "kajak.step-1"		}
,
		{
			"children": [
				4, 5, 6, 7, 8, 9, 10, 11, 12, 13, 14
			]
			,"matrix": [
				-1,					-1.91359e-24,					2.30877e-18,					0,
				2.30877e-18,					1.23165e-16,					1,					0,
				-1.91359e-24,					1,					-1.23165e-16,					0,
				-2.02637,					0.95617,					1.08081,					1
			]
			,"name": "Linkage Assembly (1)-1"		}
,
		{
			"matrix": [
				0.186058,					0.982539,					4.3421e-16,					0,
				-0.982539,					0.186058,					1.84631e-16,					0,
				1.00619e-16,					-4.60981e-16,					1,					0,
				-2.35618,					0.653777,					-0.116777,					1
			]
			,"name": "Frame_R25-2"		}
,
		{
			"matrix": [
				1,					0,					0,					0,
				0,					1,					0,					0,
				0,					0,					1,					0,
				-2.28686,					0.416447,					-0.155777,					1
			]
			,"mesh": 1
			,"name": "Base-3"		}
,
		{
			"matrix": [
				-0.717896,					-0.69615,					8.57416e-17,					0,
				7.1037e-17,					4.99094e-17,					1,					0,
				-0.69615,					0.717896,					1.36226e-17,					0,
				-2.26614,					0.577821,					-0.108777,					1
			]
			,"mesh": 2
			,"name": "Crank-3"		}
,
		{
			"matrix": [
				0.937491,					0.348008,					6.60961e-17,					0,
				1.00619e-16,					-4.60981e-16,					1,					0,
				0.348008,					-0.937491,					-4.67182e-16,					0,
				-1.95326,					0.587656,					-0.126777,					1
			]
			,"mesh": 3
			,"name": "Triangular Coupler-2"		}
,
		{
			"matrix": [
				-0.817641,					0.575728,					2.30845e-16,					0,
				-2.43129e-16,					5.56729e-17,					-1,					0,
				-0.575728,					-0.817641,					9.44556e-17,					0,
				-2.12626,					0.411775,					-0.126777,					1
			]
			,"mesh": 4
			,"name": "Rocker-4"		}
,
		{
			"matrix": [
				-0.817641,					0.575728,					6.9786e-18,					0,
				-1.03728e-16,					-1.59435e-16,					1,					0,
				0.575728,					0.817641,					1.9008e-16,					0,
				-2.00536,					0.58348,					-0.108777,					1
			]
			,"mesh": 5
			,"name": "Rocker-5"		}
,
		{
			"matrix": [
				1,					-9.98695e-16,					1.53089e-20,					0,
				1.53089e-20,					3.747e-16,					-1,					0,
				9.98695e-16,					1,					3.747e-16,					0,
				-2.02762,					0.581383,					-0.0937769,					1
			]
			,"mesh": 6
			,"name": "Rocker Top Pin-1"		}
,
		{
			"matrix": [
				0.717896,					0.69615,					8.15798e-17,					0,
				1.07915e-16,					5.90096e-18,					-1,					0,
				-0.69615,					0.717896,					-7.08889e-17,					0,
				-2.28912,					0.555544,					-0.126777,					1
			]
			,"mesh": 7
			,"name": "Crank-6"		}
,
		{
			"matrix": [
				1,					-1.0476e-15,					2.88614e-20,					0,
				-2.88614e-20,					-5.04443e-16,					1,					0,
				-1.0476e-15,					-1,					-5.04443e-16,					0,
				-2.22194,					0.509251,					-0.141777,					1
			]
			,"mesh": 8
			,"name": "Crank Pin-1"		}
,
		{
			"matrix": [
				1,					0,					4.53552e-30,					0,
				4.53552e-30,					2.46519e-32,					1,					0,
				0,					-1,					-2.46519e-32,					0,
				-2.13179,					0.433447,					-0.155777,					1
			]
			,"mesh": 9
			,"name": "Rocker Pin-1"		}
,
		{
			"matrix": [
				1,					0,					0,					0,
				0,					1,					0,					0,
				0,					0,					1,					0,
				-2.22194,					0.509251,					-0.114777,					1
			]
			,"mesh": 10
			,"name": "6392K43_One-Way Locking Needle-Roller Bearing Clutch-1"		}
,
		{
			"children": [
				16, 17
			]
			,"name": "Kayak_Assembly"		}
,
		{
			"matrix": [
				1,					0,					0,					0,
				0,					1,					0,					0,
				0,					0,					1,					0,
				-0.0895128,					0.841393,					1.28914,					1
			]
			,"mesh": 11
			,"name": "kajak.step-1"		}
,
		{
			"children": [
				18, 19, 20, 21, 22, 23, 24, 25, 26, 27, 28
			]
			,"matrix": [
				-1,					-1.91359e-24,					2.30877e-18,					0,
				2.30877e-18,					1.23165e-16,					1,					0,
				-1.91359e-24,					1,					-1.23165e-16,					0,
				-2.02637,					0.95617,					1.08081,					1
			]
			,"name": "Linkage Assembly (1)-1"		}
,
		{
			"matrix": [
				0.186058,					0.982539,					4.3421e-16,					0,
				-0.982539,					0.186058,					1.84631e-16,					0,
				1.00619e-16,					-4.60981e-16,					1,					0,
				-2.35618,					0.653777,					-0.116777,					1
			]
			,"name": "Frame_R25-2"		}
,
		{
			"matrix": [
				1,					0,					0,					0,
				0,					1,					0,					0,
				0,					0,					1,					0,
				-2.28686,					0.416447,					-0.155777,					1
			]
			,"mesh": 12
			,"name": "Base-3"		}
,
		{
			"matrix": [
				-0.717896,					-0.69615,					8.57416e-17,					0,
				7.1037e-17,					4.99094e-17,					1,					0,
				-0.69615,					0.717896,					1.36226e-17,					0,
				-2.26614,					0.577821,					-0.108777,					1
			]
			,"mesh": 13
			,"name": "Crank-3"		}
,
		{
			"matrix": [
				0.937491,					0.348008,					6.60961e-17,					0,
				1.00619e-16,					-4.60981e-16,					1,					0,
				0.348008,					-0.937491,					-4.67182e-16,					0,
				-1.95326,					0.587656,					-0.126777,					1
			]
			,"mesh": 14
			,"name": "Triangular Coupler-2"		}
,
		{
			"matrix": [
				-0.817641,					0.575728,					2.30845e-16,					0,
				-2.43129e-16,					5.56729e-17,					-1,					0,
				-0.575728,					-0.817641,					9.44556e-17,					0,
				-2.12626,					0.411775,					-0.126777,					1
			]
			,"mesh": 15
			,"name": "Rocker-4"		}
,
		{
			"matrix": [
				-0.817641,					0.575728,					6.9786e-18,					0,
				-1.03728e-16,					-1.59435e-16,					1,					0,
				0.575728,					0.817641,					1.9008e-16,					0,
				-2.00536,					0.58348,					-0.108777,					1
			]
			,"mesh": 16
			,"name": "Rocker-5"		}
,
		{
			"matrix": [
				1,					-9.98695e-16,					1.53089e-20,					0,
				1.53089e-20,					3.747e-16,					-1,					0,
				9.98695e-16,					1,					3.747e-16,					0,
				-2.02762,					0.581383,					-0.0937769,					1
			]
			,"mesh": 17
			,"name": "Rocker Top Pin-1"		}
,
		{
			"matrix": [
				0.717896,					0.69615,					8.15798e-17,					0,
				1.07915e-16,					5.90096e-18,					-1,					0,
				-0.69615,					0.717896,					-7.08889e-17,					0,
				-2.28912,					0.555544,					-0.126777,					1
			]
			,"mesh": 18
			,"name": "Crank-6"		}
,
		{
			"matrix": [
				1,					-1.0476e-15,					2.88614e-20,					0,
				-2.88614e-20,					-5.04443e-16,					1,					0,
				-1.0476e-15,					-1,					-5.04443e-16,					0,
				-2.22194,					0.509251,					-0.141777,					1
			]
			,"mesh": 19
			,"name": "Crank Pin-1"		}
,
		{
			"matrix": [
				1,					0,					4.53552e-30,					0,
				4.53552e-30,					2.46519e-32,					1,					0,
				0,					-1,					-2.46519e-32,					0,
				-2.13179,					0.433447,					-0.155777,					1
			]
			,"mesh": 20
			,"name": "Rocker Pin-1"		}
,
		{
			"matrix": [
				1,					0,					0,					0,
				0,					1,					0,					0,
				0,					0,					1,					0,
				-2.22194,					0.509251,					-0.114777,					1
			]
			,"mesh": 21
			,"name": "6392K43_One-Way Locking Needle-Roller Bearing Clutch-1"		}
	],
	"cameras": [
		{
			"type": "orthographic",
			"orthographic" : {
				"xmag": 1,
				"ymag" : 1,
				"zfar" : 100,
				"znear" : 0.01
			}
		}
	],
	"meshes" : [
		{
			"primitives" : [
				{
					"attributes" : {
					"POSITION" : 1,
					"NORMAL" : 2,
					"TEXCOORD_0" : 3
					},
					"indices" : 0,
					"mode": 4,
					"material" : 0
				},
				{
					"attributes" : {
					"POSITION" : 5,
					"NORMAL" : 6,
					"TEXCOORD_0" : 7
					},
					"indices" : 4,
					"mode": 4,
					"material" : 0
				},
				{
					"attributes" : {
					"POSITION" : 9,
					"NORMAL" : 10,
					"TEXCOORD_0" : 11
					},
					"indices" : 8,
					"mode": 4,
					"material" : 0
				},
				{
					"attributes" : {
					"POSITION" : 13,
					"NORMAL" : 14,
					"TEXCOORD_0" : 15
					},
					"indices" : 12,
					"mode": 4,
					"material" : 0
				},
				{
					"attributes" : {
					"POSITION" : 17,
					"NORMAL" : 18,
					"TEXCOORD_0" : 19
					},
					"indices" : 16,
					"mode": 4,
					"material" : 0
				},
				{
					"attributes" : {
					"POSITION" : 21,
					"NORMAL" : 22,
					"TEXCOORD_0" : 23
					},
					"indices" : 20,
					"mode": 4,
					"material" : 0
				}
			]
		},
		{
			"primitives" : [
				{
					"attributes" : {
					"POSITION" : 25,
					"NORMAL" : 26,
					"TEXCOORD_0" : 27
					},
					"indices" : 24,
					"mode": 4,
					"material" : 0
				}
			]
		},
		{
			"primitives" : [
				{
					"attributes" : {
					"POSITION" : 29,
					"NORMAL" : 30,
					"TEXCOORD_0" : 31
					},
					"indices" : 28,
					"mode": 4,
					"material" : 0
				}
			]
		},
		{
			"primitives" : [
				{
					"attributes" : {
					"POSITION" : 33,
					"NORMAL" : 34,
					"TEXCOORD_0" : 35
					},
					"indices" : 32,
					"mode": 4,
					"material" : 0
				}
			]
		},
		{
			"primitives" : [
				{
					"attributes" : {
					"POSITION" : 37,
					"NORMAL" : 38,
					"TEXCOORD_0" : 39
					},
					"indices" : 36,
					"mode": 4,
					"material" : 0
				}
			]
		},
		{
			"primitives" : [
				{
					"attributes" : {
					"POSITION" : 41,
					"NORMAL" : 42,
					"TEXCOORD_0" : 43
					},
					"indices" : 40,
					"mode": 4,
					"material" : 0
				}
			]
		},
		{
			"primitives" : [
				{
					"attributes" : {
					"POSITION" : 45,
					"NORMAL" : 46,
					"TEXCOORD_0" : 47
					},
					"indices" : 44,
					"mode": 4,
					"material" : 0
				}
			]
		},
		{
			"primitives" : [
				{
					"attributes" : {
					"POSITION" : 49,
					"NORMAL" : 50,
					"TEXCOORD_0" : 51
					},
					"indices" : 48,
					"mode": 4,
					"material" : 0
				}
			]
		},
		{
			"primitives" : [
				{
					"attributes" : {
					"POSITION" : 53,
					"NORMAL" : 54,
					"TEXCOORD_0" : 55
					},
					"indices" : 52,
					"mode": 4,
					"material" : 0
				}
			]
		},
		{
			"primitives" : [
				{
					"attributes" : {
					"POSITION" : 57,
					"NORMAL" : 58,
					"TEXCOORD_0" : 59
					},
					"indices" : 56,
					"mode": 4,
					"material" : 0
				}
			]
		},
		{
			"primitives" : [
				{
					"attributes" : {
					"POSITION" : 61,
					"NORMAL" : 62,
					"TEXCOORD_0" : 63
					},
					"indices" : 60,
					"mode": 4,
					"material" : 1
				},
				{
					"attributes" : {
					"POSITION" : 65,
					"NORMAL" : 66,
					"TEXCOORD_0" : 67
					},
					"indices" : 64,
					"mode": 4,
					"material" : 2
				}
			]
		},
		{
			"primitives" : [
				{
					"attributes" : {
					"POSITION" : 69,
					"NORMAL" : 70,
					"TEXCOORD_0" : 71
					},
					"indices" : 68,
					"mode": 4,
					"material" : 0
				},
				{
					"attributes" : {
					"POSITION" : 73,
					"NORMAL" : 74,
					"TEXCOORD_0" : 75
					},
					"indices" : 72,
					"mode": 4,
					"material" : 0
				},
				{
					"attributes" : {
					"POSITION" : 77,
					"NORMAL" : 78,
					"TEXCOORD_0" : 79
					},
					"indices" : 76,
					"mode": 4,
					"material" : 0
				},
				{
					"attributes" : {
					"POSITION" : 81,
					"NORMAL" : 82,
					"TEXCOORD_0" : 83
					},
					"indices" : 80,
					"mode": 4,
					"material" : 0
				},
				{
					"attributes" : {
					"POSITION" : 85,
					"NORMAL" : 86,
					"TEXCOORD_0" : 87
					},
					"indices" : 84,
					"mode": 4,
					"material" : 0
				},
				{
					"attributes" : {
					"POSITION" : 89,
					"NORMAL" : 90,
					"TEXCOORD_0" : 91
					},
					"indices" : 88,
					"mode": 4,
					"material" : 0
				}
			]
		},
		{
			"primitives" : [
				{
					"attributes" : {
					"POSITION" : 93,
					"NORMAL" : 94,
					"TEXCOORD_0" : 95
					},
					"indices" : 92,
					"mode": 4,
					"material" : 0
				}
			]
		},
		{
			"primitives" : [
				{
					"attributes" : {
					"POSITION" : 97,
					"NORMAL" : 98,
					"TEXCOORD_0" : 99
					},
					"indices" : 96,
					"mode": 4,
					"material" : 0
				}
			]
		},
		{
			"primitives" : [
				{
					"attributes" : {
					"POSITION" : 101,
					"NORMAL" : 102,
					"TEXCOORD_0" : 103
					},
					"indices" : 100,
					"mode": 4,
					"material" : 0
				}
			]
		},
		{
			"primitives" : [
				{
					"attributes" : {
					"POSITION" : 105,
					"NORMAL" : 106,
					"TEXCOORD_0" : 107
					},
					"indices" : 104,
					"mode": 4,
					"material" : 0
				}
			]
		},
		{
			"primitives" : [
				{
					"attributes" : {
					"POSITION" : 109,
					"NORMAL" : 110,
					"TEXCOORD_0" : 111
					},
					"indices" : 108,
					"mode": 4,
					"material" : 0
				}
			]
		},
		{
			"primitives" : [
				{
					"attributes" : {
					"POSITION" : 113,
					"NORMAL" : 114,
					"TEXCOORD_0" : 115
					},
					"indices" : 112,
					"mode": 4,
					"material" : 0
				}
			]
		},
		{
			"primitives" : [
				{
					"attributes" : {
					"POSITION" : 117,
					"NORMAL" : 118,
					"TEXCOORD_0" : 119
					},
					"indices" : 116,
					"mode": 4,
					"material" : 0
				}
			]
		},
		{
			"primitives" : [
				{
					"attributes" : {
					"POSITION" : 121,
					"NORMAL" : 122,
					"TEXCOORD_0" : 123
					},
					"indices" : 120,
					"mode": 4,
					"material" : 0
				}
			]
		},
		{
			"primitives" : [
				{
					"attributes" : {
					"POSITION" : 125,
					"NORMAL" : 126,
					"TEXCOORD_0" : 127
					},
					"indices" : 124,
					"mode": 4,
					"material" : 0
				}
			]
		},
		{
			"primitives" : [
				{
					"attributes" : {
					"POSITION" : 129,
					"NORMAL" : 130,
					"TEXCOORD_0" : 131
					},
					"indices" : 128,
					"mode": 4,
					"material" : 3
				},
				{
					"attributes" : {
					"POSITION" : 133,
					"NORMAL" : 134,
					"TEXCOORD_0" : 135
					},
					"indices" : 132,
					"mode": 4,
					"material" : 4
				}
			]
		}
	],
	"accessors" : [
			{
				"bufferView": 3
				,"byteOffset" : 0
				,"componentType" : 5123
				,"count" : 64998
				,"type" : "SCALAR"
			},
			{
				"bufferView": 0
				,"byteOffset" : 0
				,"componentType" : 5126
				,"count" : 64998
				,"type" : "VEC3"
				,"min" : [-1.46911693e+00, -2.38238543e-01, -1.66694194e-01]
				,"max" : [2.85391521e+00, 2.38101587e-01, 1.45625532e-01]
			},
			{
				"bufferView": 1
				,"byteOffset" : 0
				,"componentType" : 5126
				,"count" : 64998
				,"type" : "VEC3"
			},
			{
				"bufferView": 2
				,"byteOffset" : 0
				,"componentType" : 5126
				,"count" : 64998
				,"type" : "VEC2"
			},
			{
				"bufferView": 3
				,"byteOffset" : 129996
				,"componentType" : 5123
				,"count" : 64998
				,"type" : "SCALAR"
			},
			{
				"bufferView": 0
				,"byteOffset" : 779976
				,"componentType" : 5126
				,"count" : 64998
				,"type" : "VEC3"
				,"min" : [-1.47407150e+00, -2.86961615e-01, -1.71694189e-01]
				,"max" : [2.84667063e+00, 2.86961615e-01, 1.78799465e-01]
			},
			{
				"bufferView": 1
				,"byteOffset" : 779976
				,"componentType" : 5126
				,"count" : 64998
				,"type" : "VEC3"
			},
			{
				"bufferView": 2
				,"byteOffset" : 519984
				,"componentType" : 5126
				,"count" : 64998
				,"type" : "VEC2"
			},
			{
				"bufferView": 3
				,"byteOffset" : 259992
				,"componentType" : 5123
				,"count" : 64998
				,"type" : "SCALAR"
			},
			{
				"bufferView": 0
				,"byteOffset" : 1559952
				,"componentType" : 5126
				,"count" : 64998
				,"type" : "VEC3"
				,"min" : [-1.47407150e+00, -2.91961461e-01, -1.71694189e-01]
				,"max" : [2.84398007e+00, 2.91961461e-01, 1.83799461e-01]
			},
			{
				"bufferView": 1
				,"byteOffset" : 1559952
				,"componentType" : 5126
				,"count" : 64998
				,"type" : "VEC3"
			},
			{
				"bufferView": 2
				,"byteOffset" : 1039968
				,"componentType" : 5126
				,"count" : 64998
				,"type" : "VEC2"
			},
			{
				"bufferView": 3
				,"byteOffset" : 389988
				,"componentType" : 5123
				,"count" : 64998
				,"type" : "SCALAR"
			},
			{
				"bufferView": 0
				,"byteOffset" : 2339928
				,"componentType" : 5126
				,"count" : 64998
				,"type" : "VEC3"
				,"min" : [-1.47403657e+00, -2.91961461e-01, -1.71694189e-01]
				,"max" : [2.97000003e+00, 2.91961461e-01, 1.83799461e-01]
			},
			{
				"bufferView": 1
				,"byteOffset" : 2339928
				,"componentType" : 5126
				,"count" : 64998
				,"type" : "VEC3"
			},
			{
				"bufferView": 2
				,"byteOffset" : 1559952
				,"componentType" : 5126
				,"count" : 64998
				,"type" : "VEC2"
			},
			{
				"bufferView": 3
				,"byteOffset" : 519984
				,"componentType" : 5123
				,"count" : 64998
				,"type" : "SCALAR"
			},
			{
				"bufferView": 0
				,"byteOffset" : 3119904
				,"componentType" : 5126
				,"count" : 64998
				,"type" : "VEC3"
				,"min" : [6.27828956e-01, -2.36838862e-01, -1.09523639e-01]
				,"max" : [1.81668115e+00, 2.36838505e-01, 1.50000006e-01]
			},
			{
				"bufferView": 1
				,"byteOffset" : 3119904
				,"componentType" : 5126
				,"count" : 64998
				,"type" : "VEC3"
			},
			{
				"bufferView": 2
				,"byteOffset" : 2079936
				,"componentType" : 5126
				,"count" : 64998
				,"type" : "VEC2"
			},
			{
				"bufferView": 3
				,"byteOffset" : 649980
				,"componentType" : 5123
				,"count" : 22644
				,"type" : "SCALAR"
			},
			{
				"bufferView": 0
				,"byteOffset" : 3899880
				,"componentType" : 5126
				,"count" : 22644
				,"type" : "VEC3"
				,"min" : [1.54314554e+00, -1.32482290e-01, 1.99999996e-02]
				,"max" : [2.97000003e+00, 1.36146724e-01, 1.57999471e-01]
			},
			{
				"bufferView": 1
				,"byteOffset" : 3899880
				,"componentType" : 5126
				,"count" : 22644
				,"type" : "VEC3"
			},
			{
				"bufferView": 2
				,"byteOffset" : 2599920
				,"componentType" : 5126
				,"count" : 22644
				,"type" : "VEC2"
			},
			{
				"bufferView": 7
				,"byteOffset" : 0
				,"componentType" : 5123
				,"count" : 33510
				,"type" : "SCALAR"
			},
			{
				"bufferView": 4
				,"byteOffset" : 0
				,"componentType" : 5126
				,"count" : 33510
				,"type" : "VEC3"
				,"min" : [-1.11022302e-16, -6.81127012e-02, -1.95169710e-02]
				,"max" : [1.65069997e-01, 1.59130007e-01, 9.55169722e-02]
			},
			{
				"bufferView": 5
				,"byteOffset" : 0
				,"componentType" : 5126
				,"count" : 33510
				,"type" : "VEC3"
			},
			{
				"bufferView": 6
				,"byteOffset" : 0
				,"componentType" : 5126
				,"count" : 33510
				,"type" : "VEC2"
			},
			{
				"bufferView": 11
				,"byteOffset" : 0
				,"componentType" : 5123
				,"count" : 8064
				,"type" : "SCALAR"
			},
			{
				"bufferView": 8
				,"byteOffset" : 0
				,"componentType" : 5126
				,"count" : 8064
				,"type" : "VEC3"
				,"min" : [0.00000000e+00, 0.00000000e+00, -9.49999988e-02]
				,"max" : [3.20000015e-02, 3.20000015e-02, 1.17549435e-38]
			},
			{
				"bufferView": 9
				,"byteOffset" : 0
				,"componentType" : 5126
				,"count" : 8064
				,"type" : "VEC3"
			},
			{
				"bufferView": 10
				,"byteOffset" : 0
				,"componentType" : 5126
				,"count" : 8064
				,"type" : "VEC2"
			},
			{
				"bufferView": 15
				,"byteOffset" : 0
				,"componentType" : 5123
				,"count" : 16686
				,"type" : "SCALAR"
			},
			{
				"bufferView": 12
				,"byteOffset" : 0
				,"componentType" : 5126
				,"count" : 16686
				,"type" : "VEC3"
				,"min" : [-3.44285458e-01, -8.67361738e-19, -1.98952302e-01]
				,"max" : [1.17549435e-38, 1.79999992e-02, 2.29850861e-17]
			},
			{
				"bufferView": 13
				,"byteOffset" : 0
				,"componentType" : 5126
				,"count" : 16686
				,"type" : "VEC3"
			},
			{
				"bufferView": 14
				,"byteOffset" : 0
				,"componentType" : 5126
				,"count" : 16686
				,"type" : "VEC2"
			},
			{
				"bufferView": 19
				,"byteOffset" : 0
				,"componentType" : 5123
				,"count" : 7836
				,"type" : "SCALAR"
			},
			{
				"bufferView": 16
				,"byteOffset" : 0
				,"componentType" : 5126
				,"count" : 7836
				,"type" : "VEC3"
				,"min" : [2.23149848e-03, -8.67361738e-19, -2.09999993e-01]
				,"max" : [3.91493067e-02, 1.49999997e-02, 2.94902991e-17]
			},
			{
				"bufferView": 17
				,"byteOffset" : 0
				,"componentType" : 5126
				,"count" : 7836
				,"type" : "VEC3"
			},
			{
				"bufferView": 18
				,"byteOffset" : 0
				,"componentType" : 5126
				,"count" : 7836
				,"type" : "VEC2"
			},
			{
				"bufferView": 23
				,"byteOffset" : 0
				,"componentType" : 5123
				,"count" : 7836
				,"type" : "SCALAR"
			},
			{
				"bufferView": 20
				,"byteOffset" : 0
				,"componentType" : 5126
				,"count" : 7836
				,"type" : "VEC3"
				,"min" : [2.23149848e-03, -8.67361738e-19, -2.09999993e-01]
				,"max" : [3.91493067e-02, 1.49999997e-02, 2.94902991e-17]
			},
			{
				"bufferView": 21
				,"byteOffset" : 0
				,"componentType" : 5126
				,"count" : 7836
				,"type" : "VEC3"
			},
			{
				"bufferView": 22
				,"byteOffset" : 0
				,"componentType" : 5126
				,"count" : 7836
				,"type" : "VEC2"
			},
			{
				"bufferView": 27
				,"byteOffset" : 0
				,"componentType" : 5123
				,"count" : 504
				,"type" : "SCALAR"
			},
			{
				"bufferView": 24
				,"byteOffset" : 0
				,"componentType" : 5126
				,"count" : 504
				,"type" : "VEC3"
				,"min" : [-6.98042661e-03, 0.00000000e+00, -7.00000022e-03]
				,"max" : [6.98042661e-03, 4.80000004e-02, 7.00000022e-03]
			},
			{
				"bufferView": 25
				,"byteOffset" : 0
				,"componentType" : 5126
				,"count" : 504
				,"type" : "VEC3"
			},
			{
				"bufferView": 26
				,"byteOffset" : 0
				,"componentType" : 5126
				,"count" : 504
				,"type" : "VEC2"
			},
			{
				"bufferView": 31
				,"byteOffset" : 0
				,"componentType" : 5123
				,"count" : 8064
				,"type" : "SCALAR"
			},
			{
				"bufferView": 28
				,"byteOffset" : 0
				,"componentType" : 5126
				,"count" : 8064
				,"type" : "VEC3"
				,"min" : [0.00000000e+00, 0.00000000e+00, -9.49999988e-02]
				,"max" : [3.20000015e-02, 3.20000015e-02, 1.17549435e-38]
			},
			{
				"bufferView": 29
				,"byteOffset" : 0
				,"componentType" : 5126
				,"count" : 8064
				,"type" : "VEC3"
			},
			{
				"bufferView": 30
				,"byteOffset" : 0
				,"componentType" : 5126
				,"count" : 8064
				,"type" : "VEC2"
			},
			{
				"bufferView": 35
				,"byteOffset" : 0
				,"componentType" : 5123
				,"count" : 480
				,"type" : "SCALAR"
			},
			{
				"bufferView": 32
				,"byteOffset" : 0
				,"componentType" : 5126
				,"count" : 480
				,"type" : "VEC3"
				,"min" : [-4.99594491e-03, 0.00000000e+00, -4.99999989e-03]
				,"max" : [4.99594491e-03, 4.80000004e-02, 4.99999989e-03]
			},
			{
				"bufferView": 33
				,"byteOffset" : 0
				,"componentType" : 5126
				,"count" : 480
				,"type" : "VEC3"
			},
			{
				"bufferView": 34
				,"byteOffset" : 0
				,"componentType" : 5126
				,"count" : 480
				,"type" : "VEC2"
			},
			{
				"bufferView": 39
				,"byteOffset" : 0
				,"componentType" : 5123
				,"count" : 480
				,"type" : "SCALAR"
			},
			{
				"bufferView": 36
				,"byteOffset" : 0
				,"componentType" : 5126
				,"count" : 480
				,"type" : "VEC3"
				,"min" : [-6.99432287e-03, 0.00000000e+00, -7.00000022e-03]
				,"max" : [6.99432287e-03, 7.59999976e-02, 7.00000022e-03]
			},
			{
				"bufferView": 37
				,"byteOffset" : 0
				,"componentType" : 5126
				,"count" : 480
				,"type" : "VEC3"
			},
			{
				"bufferView": 38
				,"byteOffset" : 0
				,"componentType" : 5126
				,"count" : 480
				,"type" : "VEC2"
			},
			{
				"bufferView": 43
				,"byteOffset" : 0
				,"componentType" : 5123
				,"count" : 7980
				,"type" : "SCALAR"
			},
			{
				"bufferView": 40
				,"byteOffset" : 0
				,"componentType" : 5126
				,"count" : 7980
				,"type" : "VEC3"
				,"min" : [-6.99295150e-03, -7.00000022e-03, -6.00000005e-03]
				,"max" : [6.99295150e-03, 7.00000022e-03, 6.00000005e-03]
			},
			{
				"bufferView": 41
				,"byteOffset" : 0
				,"componentType" : 5126
				,"count" : 7980
				,"type" : "VEC3"
			},
			{
				"bufferView": 42
				,"byteOffset" : 0
				,"componentType" : 5126
				,"count" : 7980
				,"type" : "VEC2"
			},
			{
				"bufferView": 43
				,"byteOffset" : 15960
				,"componentType" : 5123
				,"count" : 11616
				,"type" : "SCALAR"
			},
			{
				"bufferView": 40
				,"byteOffset" : 95760
				,"componentType" : 5126
				,"count" : 11616
				,"type" : "VEC3"
				,"min" : [-6.27404684e-03, -6.10374892e-03, -5.33333328e-03]
				,"max" : [6.27557561e-03, 6.33273274e-03, 5.33333328e-03]
			},
			{
				"bufferView": 41
				,"byteOffset" : 95760
				,"componentType" : 5126
				,"count" : 11616
				,"type" : "VEC3"
			},
			{
				"bufferView": 42
				,"byteOffset" : 63840
				,"componentType" : 5126
				,"count" : 11616
				,"type" : "VEC2"
			},
			{
				"bufferView": 47
				,"byteOffset" : 0
				,"componentType" : 5123
				,"count" : 64998
				,"type" : "SCALAR"
			},
			{
				"bufferView": 44
				,"byteOffset" : 0
				,"componentType" : 5126
				,"count" : 64998
				,"type" : "VEC3"
				,"min" : [-1.46911693e+00, -2.38238543e-01, -1.66694194e-01]
				,"max" : [2.85391521e+00, 2.38101587e-01, 1.45625532e-01]
			},
			{
				"bufferView": 45
				,"byteOffset" : 0
				,"componentType" : 5126
				,"count" : 64998
				,"type" : "VEC3"
			},
			{
				"bufferView": 46
				,"byteOffset" : 0
				,"componentType" : 5126
				,"count" : 64998
				,"type" : "VEC2"
			},
			{
				"bufferView": 47
				,"byteOffset" : 129996
				,"componentType" : 5123
				,"count" : 64998
				,"type" : "SCALAR"
			},
			{
				"bufferView": 44
				,"byteOffset" : 779976
				,"componentType" : 5126
				,"count" : 64998
				,"type" : "VEC3"
				,"min" : [-1.47407150e+00, -2.86961615e-01, -1.71694189e-01]
				,"max" : [2.84667063e+00, 2.86961615e-01, 1.78799465e-01]
			},
			{
				"bufferView": 45
				,"byteOffset" : 779976
				,"componentType" : 5126
				,"count" : 64998
				,"type" : "VEC3"
			},
			{
				"bufferView": 46
				,"byteOffset" : 519984
				,"componentType" : 5126
				,"count" : 64998
				,"type" : "VEC2"
			},
			{
				"bufferView": 47
				,"byteOffset" : 259992
				,"componentType" : 5123
				,"count" : 64998
				,"type" : "SCALAR"
			},
			{
				"bufferView": 44
				,"byteOffset" : 1559952
				,"componentType" : 5126
				,"count" : 64998
				,"type" : "VEC3"
				,"min" : [-1.47407150e+00, -2.91961461e-01, -1.71694189e-01]
				,"max" : [2.84398007e+00, 2.91961461e-01, 1.83799461e-01]
			},
			{
				"bufferView": 45
				,"byteOffset" : 1559952
				,"componentType" : 5126
				,"count" : 64998
				,"type" : "VEC3"
			},
			{
				"bufferView": 46
				,"byteOffset" : 1039968
				,"componentType" : 5126
				,"count" : 64998
				,"type" : "VEC2"
			},
			{
				"bufferView": 47
				,"byteOffset" : 389988
				,"componentType" : 5123
				,"count" : 64998
				,"type" : "SCALAR"
			},
			{
				"bufferView": 44
				,"byteOffset" : 2339928
				,"componentType" : 5126
				,"count" : 64998
				,"type" : "VEC3"
				,"min" : [-1.47403657e+00, -2.91961461e-01, -1.71694189e-01]
				,"max" : [2.97000003e+00, 2.91961461e-01, 1.83799461e-01]
			},
			{
				"bufferView": 45
				,"byteOffset" : 2339928
				,"componentType" : 5126
				,"count" : 64998
				,"type" : "VEC3"
			},
			{
				"bufferView": 46
				,"byteOffset" : 1559952
				,"componentType" : 5126
				,"count" : 64998
				,"type" : "VEC2"
			},
			{
				"bufferView": 47
				,"byteOffset" : 519984
				,"componentType" : 5123
				,"count" : 64998
				,"type" : "SCALAR"
			},
			{
				"bufferView": 44
				,"byteOffset" : 3119904
				,"componentType" : 5126
				,"count" : 64998
				,"type" : "VEC3"
				,"min" : [6.27828956e-01, -2.36838862e-01, -1.09523639e-01]
				,"max" : [1.81668115e+00, 2.36838505e-01, 1.50000006e-01]
			},
			{
				"bufferView": 45
				,"byteOffset" : 3119904
				,"componentType" : 5126
				,"count" : 64998
				,"type" : "VEC3"
			},
			{
				"bufferView": 46
				,"byteOffset" : 2079936
				,"componentType" : 5126
				,"count" : 64998
				,"type" : "VEC2"
			},
			{
				"bufferView": 47
				,"byteOffset" : 649980
				,"componentType" : 5123
				,"count" : 22644
				,"type" : "SCALAR"
			},
			{
				"bufferView": 44
				,"byteOffset" : 3899880
				,"componentType" : 5126
				,"count" : 22644
				,"type" : "VEC3"
				,"min" : [1.54314554e+00, -1.32482290e-01, 1.99999996e-02]
				,"max" : [2.97000003e+00, 1.36146724e-01, 1.57999471e-01]
			},
			{
				"bufferView": 45
				,"byteOffset" : 3899880
				,"componentType" : 5126
				,"count" : 22644
				,"type" : "VEC3"
			},
			{
				"bufferView": 46
				,"byteOffset" : 2599920
				,"componentType" : 5126
				,"count" : 22644
				,"type" : "VEC2"
			},
			{
				"bufferView": 51
				,"byteOffset" : 0
				,"componentType" : 5123
				,"count" : 33510
				,"type" : "SCALAR"
			},
			{
				"bufferView": 48
				,"byteOffset" : 0
				,"componentType" : 5126
				,"count" : 33510
				,"type" : "VEC3"
				,"min" : [-1.11022302e-16, -6.81127012e-02, -1.95169710e-02]
				,"max" : [1.65069997e-01, 1.59130007e-01, 9.55169722e-02]
			},
			{
				"bufferView": 49
				,"byteOffset" : 0
				,"componentType" : 5126
				,"count" : 33510
				,"type" : "VEC3"
			},
			{
				"bufferView": 50
				,"byteOffset" : 0
				,"componentType" : 5126
				,"count" : 33510
				,"type" : "VEC2"
			},
			{
				"bufferView": 55
				,"byteOffset" : 0
				,"componentType" : 5123
				,"count" : 8064
				,"type" : "SCALAR"
			},
			{
				"bufferView": 52
				,"byteOffset" : 0
				,"componentType" : 5126
				,"count" : 8064
				,"type" : "VEC3"
				,"min" : [0.00000000e+00, 0.00000000e+00, -9.49999988e-02]
				,"max" : [3.20000015e-02, 3.20000015e-02, 1.17549435e-38]
			},
			{
				"bufferView": 53
				,"byteOffset" : 0
				,"componentType" : 5126
				,"count" : 8064
				,"type" : "VEC3"
			},
			{
				"bufferView": 54
				,"byteOffset" : 0
				,"componentType" : 5126
				,"count" : 8064
				,"type" : "VEC2"
			},
			{
				"bufferView": 59
				,"byteOffset" : 0
				,"componentType" : 5123
				,"count" : 16686
				,"type" : "SCALAR"
			},
			{
				"bufferView": 56
				,"byteOffset" : 0
				,"componentType" : 5126
				,"count" : 16686
				,"type" : "VEC3"
				,"min" : [-3.44285458e-01, -8.67361738e-19, -1.98952302e-01]
				,"max" : [1.17549435e-38, 1.79999992e-02, 2.29850861e-17]
			},
			{
				"bufferView": 57
				,"byteOffset" : 0
				,"componentType" : 5126
				,"count" : 16686
				,"type" : "VEC3"
			},
			{
				"bufferView": 58
				,"byteOffset" : 0
				,"componentType" : 5126
				,"count" : 16686
				,"type" : "VEC2"
			},
			{
				"bufferView": 63
				,"byteOffset" : 0
				,"componentType" : 5123
				,"count" : 7836
				,"type" : "SCALAR"
			},
			{
				"bufferView": 60
				,"byteOffset" : 0
				,"componentType" : 5126
				,"count" : 7836
				,"type" : "VEC3"
				,"min" : [2.23149848e-03, -8.67361738e-19, -2.09999993e-01]
				,"max" : [3.91493067e-02, 1.49999997e-02, 2.94902991e-17]
			},
			{
				"bufferView": 61
				,"byteOffset" : 0
				,"componentType" : 5126
				,"count" : 7836
				,"type" : "VEC3"
			},
			{
				"bufferView": 62
				,"byteOffset" : 0
				,"componentType" : 5126
				,"count" : 7836
				,"type" : "VEC2"
			},
			{
				"bufferView": 67
				,"byteOffset" : 0
				,"componentType" : 5123
				,"count" : 7836
				,"type" : "SCALAR"
			},
			{
				"bufferView": 64
				,"byteOffset" : 0
				,"componentType" : 5126
				,"count" : 7836
				,"type" : "VEC3"
				,"min" : [2.23149848e-03, -8.67361738e-19, -2.09999993e-01]
				,"max" : [3.91493067e-02, 1.49999997e-02, 2.94902991e-17]
			},
			{
				"bufferView": 65
				,"byteOffset" : 0
				,"componentType" : 5126
				,"count" : 7836
				,"type" : "VEC3"
			},
			{
				"bufferView": 66
				,"byteOffset" : 0
				,"componentType" : 5126
				,"count" : 7836
				,"type" : "VEC2"
			},
			{
				"bufferView": 71
				,"byteOffset" : 0
				,"componentType" : 5123
				,"count" : 504
				,"type" : "SCALAR"
			},
			{
				"bufferView": 68
				,"byteOffset" : 0
				,"componentType" : 5126
				,"count" : 504
				,"type" : "VEC3"
				,"min" : [-6.98042661e-03, 0.00000000e+00, -7.00000022e-03]
				,"max" : [6.98042661e-03, 4.80000004e-02, 7.00000022e-03]
			},
			{
				"bufferView": 69
				,"byteOffset" : 0
				,"componentType" : 5126
				,"count" : 504
				,"type" : "VEC3"
			},
			{
				"bufferView": 70
				,"byteOffset" : 0
				,"componentType" : 5126
				,"count" : 504
				,"type" : "VEC2"
			},
			{
				"bufferView": 75
				,"byteOffset" : 0
				,"componentType" : 5123
				,"count" : 8064
				,"type" : "SCALAR"
			},
			{
				"bufferView": 72
				,"byteOffset" : 0
				,"componentType" : 5126
				,"count" : 8064
				,"type" : "VEC3"
				,"min" : [0.00000000e+00, 0.00000000e+00, -9.49999988e-02]
				,"max" : [3.20000015e-02, 3.20000015e-02, 1.17549435e-38]
			},
			{
				"bufferView": 73
				,"byteOffset" : 0
				,"componentType" : 5126
				,"count" : 8064
				,"type" : "VEC3"
			},
			{
				"bufferView": 74
				,"byteOffset" : 0
				,"componentType" : 5126
				,"count" : 8064
				,"type" : "VEC2"
			},
			{
				"bufferView": 79
				,"byteOffset" : 0
				,"componentType" : 5123
				,"count" : 480
				,"type" : "SCALAR"
			},
			{
				"bufferView": 76
				,"byteOffset" : 0
				,"componentType" : 5126
				,"count" : 480
				,"type" : "VEC3"
				,"min" : [-4.99594491e-03, 0.00000000e+00, -4.99999989e-03]
				,"max" : [4.99594491e-03, 4.80000004e-02, 4.99999989e-03]
			},
			{
				"bufferView": 77
				,"byteOffset" : 0
				,"componentType" : 5126
				,"count" : 480
				,"type" : "VEC3"
			},
			{
				"bufferView": 78
				,"byteOffset" : 0
				,"componentType" : 5126
				,"count" : 480
				,"type" : "VEC2"
			},
			{
				"bufferView": 83
				,"byteOffset" : 0
				,"componentType" : 5123
				,"count" : 480
				,"type" : "SCALAR"
			},
			{
				"bufferView": 80
				,"byteOffset" : 0
				,"componentType" : 5126
				,"count" : 480
				,"type" : "VEC3"
				,"min" : [-6.99432287e-03, 0.00000000e+00, -7.00000022e-03]
				,"max" : [6.99432287e-03, 7.59999976e-02, 7.00000022e-03]
			},
			{
				"bufferView": 81
				,"byteOffset" : 0
				,"componentType" : 5126
				,"count" : 480
				,"type" : "VEC3"
			},
			{
				"bufferView": 82
				,"byteOffset" : 0
				,"componentType" : 5126
				,"count" : 480
				,"type" : "VEC2"
			},
			{
				"bufferView": 87
				,"byteOffset" : 0
				,"componentType" : 5123
				,"count" : 7980
				,"type" : "SCALAR"
			},
			{
				"bufferView": 84
				,"byteOffset" : 0
				,"componentType" : 5126
				,"count" : 7980
				,"type" : "VEC3"
				,"min" : [-6.99295150e-03, -7.00000022e-03, -6.00000005e-03]
				,"max" : [6.99295150e-03, 7.00000022e-03, 6.00000005e-03]
			},
			{
				"bufferView": 85
				,"byteOffset" : 0
				,"componentType" : 5126
				,"count" : 7980
				,"type" : "VEC3"
			},
			{
				"bufferView": 86
				,"byteOffset" : 0
				,"componentType" : 5126
				,"count" : 7980
				,"type" : "VEC2"
			},
			{
				"bufferView": 87
				,"byteOffset" : 15960
				,"componentType" : 5123
				,"count" : 11616
				,"type" : "SCALAR"
			},
			{
				"bufferView": 84
				,"byteOffset" : 95760
				,"componentType" : 5126
				,"count" : 11616
				,"type" : "VEC3"
				,"min" : [-6.27404684e-03, -6.10374892e-03, -5.33333328e-03]
				,"max" : [6.27557561e-03, 6.33273274e-03, 5.33333328e-03]
			},
			{
				"bufferView": 85
				,"byteOffset" : 95760
				,"componentType" : 5126
				,"count" : 11616
				,"type" : "VEC3"
			},
			{
				"bufferView": 86
				,"byteOffset" : 63840
				,"componentType" : 5126
				,"count" : 11616
				,"type" : "VEC2"
			}
	],
	"materials": [
			{
				"pbrMetallicRoughness": {
					"baseColorFactor": [
						0.498039, 0.498039, 0.498039, 1
					]
					,"metallicFactor": 0
					,"roughnessFactor": 1
				}
			},
			{
				"name": "color-1"
				,"pbrMetallicRoughness": {
					"baseColorFactor": [
						0.752941, 0.752941, 0.752941, 1
					]
					,"metallicFactor": 0
					,"roughnessFactor": 0.188
				}
			},
			{
				"name": "color"
				,"pbrMetallicRoughness": {
					"baseColorFactor": [
						0.752941, 0.752941, 0.752941, 1
					]
					,"metallicFactor": 0
					,"roughnessFactor": 0.188
				}
			},
			{
				"name": "color-3"
				,"pbrMetallicRoughness": {
					"baseColorFactor": [
						0.752941, 0.752941, 0.752941, 1
					]
					,"metallicFactor": 0
					,"roughnessFactor": 0.188
				}
			},
			{
				"name": "color-2"
				,"pbrMetallicRoughness": {
					"baseColorFactor": [
						0.752941, 0.752941, 0.752941, 1
					]
					,"metallicFactor": 0
					,"roughnessFactor": 0.188
				}
			}
	],
	"bufferViews" : [
			{
				"buffer": 0
				,"byteOffset" : 0
				,"byteLength" : 4171608
				,"byteStride" : 12
				,"target" : 34962
			},
			{
				"buffer": 0
				,"byteOffset" : 4171608
				,"byteLength" : 4171608
				,"byteStride" : 12
				,"target" : 34962
			},
			{
				"buffer": 0
				,"byteOffset" : 8343216
				,"byteLength" : 2781072
				,"byteStride" : 8
				,"target" : 34962
			},
			{
				"buffer": 0
				,"byteOffset" : 11124288
				,"byteLength" : 695268
				,"target" : 34963
			},
			{
				"buffer": 1
				,"byteOffset" : 0
				,"byteLength" : 402120
				,"byteStride" : 12
				,"target" : 34962
			},
			{
				"buffer": 1
				,"byteOffset" : 402120
				,"byteLength" : 402120
				,"byteStride" : 12
				,"target" : 34962
			},
			{
				"buffer": 1
				,"byteOffset" : 804240
				,"byteLength" : 268080
				,"byteStride" : 8
				,"target" : 34962
			},
			{
				"buffer": 1
				,"byteOffset" : 1072320
				,"byteLength" : 67020
				,"target" : 34963
			},
			{
				"buffer": 2
				,"byteOffset" : 0
				,"byteLength" : 96768
				,"byteStride" : 12
				,"target" : 34962
			},
			{
				"buffer": 2
				,"byteOffset" : 96768
				,"byteLength" : 96768
				,"byteStride" : 12
				,"target" : 34962
			},
			{
				"buffer": 2
				,"byteOffset" : 193536
				,"byteLength" : 64512
				,"byteStride" : 8
				,"target" : 34962
			},
			{
				"buffer": 2
				,"byteOffset" : 258048
				,"byteLength" : 16128
				,"target" : 34963
			},
			{
				"buffer": 3
				,"byteOffset" : 0
				,"byteLength" : 200232
				,"byteStride" : 12
				,"target" : 34962
			},
			{
				"buffer": 3
				,"byteOffset" : 200232
				,"byteLength" : 200232
				,"byteStride" : 12
				,"target" : 34962
			},
			{
				"buffer": 3
				,"byteOffset" : 400464
				,"byteLength" : 133488
				,"byteStride" : 8
				,"target" : 34962
			},
			{
				"buffer": 3
				,"byteOffset" : 533952
				,"byteLength" : 33372
				,"target" : 34963
			},
			{
				"buffer": 4
				,"byteOffset" : 0
				,"byteLength" : 94032
				,"byteStride" : 12
				,"target" : 34962
			},
			{
				"buffer": 4
				,"byteOffset" : 94032
				,"byteLength" : 94032
				,"byteStride" : 12
				,"target" : 34962
			},
			{
				"buffer": 4
				,"byteOffset" : 188064
				,"byteLength" : 62688
				,"byteStride" : 8
				,"target" : 34962
			},
			{
				"buffer": 4
				,"byteOffset" : 250752
				,"byteLength" : 15672
				,"target" : 34963
			},
			{
				"buffer": 5
				,"byteOffset" : 0
				,"byteLength" : 94032
				,"byteStride" : 12
				,"target" : 34962
			},
			{
				"buffer": 5
				,"byteOffset" : 94032
				,"byteLength" : 94032
				,"byteStride" : 12
				,"target" : 34962
			},
			{
				"buffer": 5
				,"byteOffset" : 188064
				,"byteLength" : 62688
				,"byteStride" : 8
				,"target" : 34962
			},
			{
				"buffer": 5
				,"byteOffset" : 250752
				,"byteLength" : 15672
				,"target" : 34963
			},
			{
				"buffer": 6
				,"byteOffset" : 0
				,"byteLength" : 6048
				,"byteStride" : 12
				,"target" : 34962
			},
			{
				"buffer": 6
				,"byteOffset" : 6048
				,"byteLength" : 6048
				,"byteStride" : 12
				,"target" : 34962
			},
			{
				"buffer": 6
				,"byteOffset" : 12096
				,"byteLength" : 4032
				,"byteStride" : 8
				,"target" : 34962
			},
			{
				"buffer": 6
				,"byteOffset" : 16128
				,"byteLength" : 1008
				,"target" : 34963
			},
			{
				"buffer": 7
				,"byteOffset" : 0
				,"byteLength" : 96768
				,"byteStride" : 12
				,"target" : 34962
			},
			{
				"buffer": 7
				,"byteOffset" : 96768
				,"byteLength" : 96768
				,"byteStride" : 12
				,"target" : 34962
			},
			{
				"buffer": 7
				,"byteOffset" : 193536
				,"byteLength" : 64512
				,"byteStride" : 8
				,"target" : 34962
			},
			{
				"buffer": 7
				,"byteOffset" : 258048
				,"byteLength" : 16128
				,"target" : 34963
			},
			{
				"buffer": 8
				,"byteOffset" : 0
				,"byteLength" : 5760
				,"byteStride" : 12
				,"target" : 34962
			},
			{
				"buffer": 8
				,"byteOffset" : 5760
				,"byteLength" : 5760
				,"byteStride" : 12
				,"target" : 34962
			},
			{
				"buffer": 8
				,"byteOffset" : 11520
				,"byteLength" : 3840
				,"byteStride" : 8
				,"target" : 34962
			},
			{
				"buffer": 8
				,"byteOffset" : 15360
				,"byteLength" : 960
				,"target" : 34963
			},
			{
				"buffer": 9
				,"byteOffset" : 0
				,"byteLength" : 5760
				,"byteStride" : 12
				,"target" : 34962
			},
			{
				"buffer": 9
				,"byteOffset" : 5760
				,"byteLength" : 5760
				,"byteStride" : 12
				,"target" : 34962
			},
			{
				"buffer": 9
				,"byteOffset" : 11520
				,"byteLength" : 3840
				,"byteStride" : 8
				,"target" : 34962
			},
			{
				"buffer": 9
				,"byteOffset" : 15360
				,"byteLength" : 960
				,"target" : 34963
			},
			{
				"buffer": 10
				,"byteOffset" : 0
				,"byteLength" : 235152
				,"byteStride" : 12
				,"target" : 34962
			},
			{
				"buffer": 10
				,"byteOffset" : 235152
				,"byteLength" : 235152
				,"byteStride" : 12
				,"target" : 34962
			},
			{
				"buffer": 10
				,"byteOffset" : 470304
				,"byteLength" : 156768
				,"byteStride" : 8
				,"target" : 34962
			},
			{
				"buffer": 10
				,"byteOffset" : 627072
				,"byteLength" : 39192
				,"target" : 34963
			},
			{
				"buffer": 11
				,"byteOffset" : 0
				,"byteLength" : 4171608
				,"byteStride" : 12
				,"target" : 34962
			},
			{
				"buffer": 11
				,"byteOffset" : 4171608
				,"byteLength" : 4171608
				,"byteStride" : 12
				,"target" : 34962
			},
			{
				"buffer": 11
				,"byteOffset" : 8343216
				,"byteLength" : 2781072
				,"byteStride" : 8
				,"target" : 34962
			},
			{
				"buffer": 11
				,"byteOffset" : 11124288
				,"byteLength" : 695268
				,"target" : 34963
			},
			{
				"buffer": 12
				,"byteOffset" : 0
				,"byteLength" : 402120
				,"byteStride" : 12
				,"target" : 34962
			},
			{
				"buffer": 12
				,"byteOffset" : 402120
				,"byteLength" : 402120
				,"byteStride" : 12
				,"target" : 34962
			},
			{
				"buffer": 12
				,"byteOffset" : 804240
				,"byteLength" : 268080
				,"byteStride" : 8
				,"target" : 34962
			},
			{
				"buffer": 12
				,"byteOffset" : 1072320
				,"byteLength" : 67020
				,"target" : 34963
			},
			{
				"buffer": 13
				,"byteOffset" : 0
				,"byteLength" : 96768
				,"byteStride" : 12
				,"target" : 34962
			},
			{
				"buffer": 13
				,"byteOffset" : 96768
				,"byteLength" : 96768
				,"byteStride" : 12
				,"target" : 34962
			},
			{
				"buffer": 13
				,"byteOffset" : 193536
				,"byteLength" : 64512
				,"byteStride" : 8
				,"target" : 34962
			},
			{
				"buffer": 13
				,"byteOffset" : 258048
				,"byteLength" : 16128
				,"target" : 34963
			},
			{
				"buffer": 14
				,"byteOffset" : 0
				,"byteLength" : 200232
				,"byteStride" : 12
				,"target" : 34962
			},
			{
				"buffer": 14
				,"byteOffset" : 200232
				,"byteLength" : 200232
				,"byteStride" : 12
				,"target" : 34962
			},
			{
				"buffer": 14
				,"byteOffset" : 400464
				,"byteLength" : 133488
				,"byteStride" : 8
				,"target" : 34962
			},
			{
				"buffer": 14
				,"byteOffset" : 533952
				,"byteLength" : 33372
				,"target" : 34963
			},
			{
				"buffer": 15
				,"byteOffset" : 0
				,"byteLength" : 94032
				,"byteStride" : 12
				,"target" : 34962
			},
			{
				"buffer": 15
				,"byteOffset" : 94032
				,"byteLength" : 94032
				,"byteStride" : 12
				,"target" : 34962
			},
			{
				"buffer": 15
				,"byteOffset" : 188064
				,"byteLength" : 62688
				,"byteStride" : 8
				,"target" : 34962
			},
			{
				"buffer": 15
				,"byteOffset" : 250752
				,"byteLength" : 15672
				,"target" : 34963
			},
			{
				"buffer": 16
				,"byteOffset" : 0
				,"byteLength" : 94032
				,"byteStride" : 12
				,"target" : 34962
			},
			{
				"buffer": 16
				,"byteOffset" : 94032
				,"byteLength" : 94032
				,"byteStride" : 12
				,"target" : 34962
			},
			{
				"buffer": 16
				,"byteOffset" : 188064
				,"byteLength" : 62688
				,"byteStride" : 8
				,"target" : 34962
			},
			{
				"buffer": 16
				,"byteOffset" : 250752
				,"byteLength" : 15672
				,"target" : 34963
			},
			{
				"buffer": 17
				,"byteOffset" : 0
				,"byteLength" : 6048
				,"byteStride" : 12
				,"target" : 34962
			},
			{
				"buffer": 17
				,"byteOffset" : 6048
				,"byteLength" : 6048
				,"byteStride" : 12
				,"target" : 34962
			},
			{
				"buffer": 17
				,"byteOffset" : 12096
				,"byteLength" : 4032
				,"byteStride" : 8
				,"target" : 34962
			},
			{
				"buffer": 17
				,"byteOffset" : 16128
				,"byteLength" : 1008
				,"target" : 34963
			},
			{
				"buffer": 18
				,"byteOffset" : 0
				,"byteLength" : 96768
				,"byteStride" : 12
				,"target" : 34962
			},
			{
				"buffer": 18
				,"byteOffset" : 96768
				,"byteLength" : 96768
				,"byteStride" : 12
				,"target" : 34962
			},
			{
				"buffer": 18
				,"byteOffset" : 193536
				,"byteLength" : 64512
				,"byteStride" : 8
				,"target" : 34962
			},
			{
				"buffer": 18
				,"byteOffset" : 258048
				,"byteLength" : 16128
				,"target" : 34963
			},
			{
				"buffer": 19
				,"byteOffset" : 0
				,"byteLength" : 5760
				,"byteStride" : 12
				,"target" : 34962
			},
			{
				"buffer": 19
				,"byteOffset" : 5760
				,"byteLength" : 5760
				,"byteStride" : 12
				,"target" : 34962
			},
			{
				"buffer": 19
				,"byteOffset" : 11520
				,"byteLength" : 3840
				,"byteStride" : 8
				,"target" : 34962
			},
			{
				"buffer": 19
				,"byteOffset" : 15360
				,"byteLength" : 960
				,"target" : 34963
			},
			{
				"buffer": 20
				,"byteOffset" : 0
				,"byteLength" : 5760
				,"byteStride" : 12
				,"target" : 34962
			},
			{
				"buffer": 20
				,"byteOffset" : 5760
				,"byteLength" : 5760
				,"byteStride" : 12
				,"target" : 34962
			},
			{
				"buffer": 20
				,"byteOffset" : 11520
				,"byteLength" : 3840
				,"byteStride" : 8
				,"target" : 34962
			},
			{
				"buffer": 20
				,"byteOffset" : 15360
				,"byteLength" : 960
				,"target" : 34963
			},
			{
				"buffer": 21
				,"byteOffset" : 0
				,"byteLength" : 235152
				,"byteStride" : 12
				,"target" : 34962
			},
			{
				"buffer": 21
				,"byteOffset" : 235152
				,"byteLength" : 235152
				,"byteStride" : 12
				,"target" : 34962
			},
			{
				"buffer": 21
				,"byteOffset" : 470304
				,"byteLength" : 156768
				,"byteStride" : 8
				,"target" : 34962
			},
			{
				"buffer": 21
				,"byteOffset" : 627072
				,"byteLength" : 39192
				,"target" : 34963
			}
	],
	"buffers" : [
			{
				"byteLength": 11819556
				,"uri" : "kajak.step-1.bin"
			},
			{
				"byteLength": 1139340
				,"uri" : "Base-3.bin"
			},
			{
				"byteLength": 274176
				,"uri" : "Crank-3.bin"
			},
			{
				"byteLength": 567324
				,"uri" : "Triangular_Coupler-2.bin"
			},
			{
				"byteLength": 266424
				,"uri" : "Rocker-4.bin"
			},
			{
				"byteLength": 266424
				,"uri" : "Rocker-5.bin"
			},
			{
				"byteLength": 17136
				,"uri" : "Rocker_Top_Pin-1.bin"
			},
			{
				"byteLength": 274176
				,"uri" : "Crank-6.bin"
			},
			{
				"byteLength": 16320
				,"uri" : "Crank_Pin-1.bin"
			},
			{
				"byteLength": 16320
				,"uri" : "Rocker_Pin-1.bin"
			},
			{
				"byteLength": 666264
				,"uri" : "6392K43_One-Way_Locking_Needle-Roller_Bearing_Clutch-1.bin"
			},
			{
				"byteLength": 11819556
				,"uri" : "kajak.step-1-1.bin"
			},
			{
				"byteLength": 1139340
				,"uri" : "Base-3-1.bin"
			},
			{
				"byteLength": 274176
				,"uri" : "Crank-3-1.bin"
			},
			{
				"byteLength": 567324
				,"uri" : "Triangular_Coupler-2-1.bin"
			},
			{
				"byteLength": 266424
				,"uri" : "Rocker-4-1.bin"
			},
			{
				"byteLength": 266424
				,"uri" : "Rocker-5-1.bin"
			},
			{
				"byteLength": 17136
				,"uri" : "Rocker_Top_Pin-1-1.bin"
			},
			{
				"byteLength": 274176
				,"uri" : "Crank-6-1.bin"
			},
			{
				"byteLength": 16320
				,"uri" : "Crank_Pin-1-1.bin"
			},
			{
				"byteLength": 16320
				,"uri" : "Rocker_Pin-1-1.bin"
			},
			{
				"byteLength": 666264
				,"uri" : "6392K43_One-Way_Locking_Needle-Roller_Bearing_Clutch-1-1.bin"
			}
	]
}
